<?xml version="1.0" ?><!DOCTYPE svg  PUBLIC '-//W3C//DTD SVG 1.1//EN'  'http://www.w3.org/Graphics/SVG/1.1/DTD/svg11.dtd'><svg xmlns="http://www.w3.org/2000/svg" xmlns:xlink="http://www.w3.org/1999/xlink"><symbol viewBox="0 0 56.693 56.693" id="facebook" xmlns="http://www.w3.org/2000/svg"><path d="M40.43 21.739h-7.645v-5.014c0-1.883 1.248-2.322 2.127-2.322h5.395V6.125l-7.43-.029c-8.248 0-10.125 6.174-10.125 10.125v5.518h-4.77v8.53h4.77v24.137h10.033V30.269h6.77l.875-8.53z"/></symbol><symbol viewBox="0 0 56.693 56.693" id="google-plus" xmlns="http://www.w3.org/2000/svg"><path d="M52.218 25.852h-7.512v-7.51c0-.573-.465-1.039-1.037-1.039H41.53a1.04 1.04 0 0 0-1.041 1.039v7.51h-7.512c-.572 0-1.039.467-1.039 1.041v2.139a1.04 1.04 0 0 0 1.039 1.039h7.512v7.514a1.04 1.04 0 0 0 1.041 1.039h2.139c.572 0 1.037-.465 1.037-1.039V30.07h7.512a1.04 1.04 0 0 0 1.039-1.039v-2.139a1.04 1.04 0 0 0-1.039-1.04z"/><path d="M26.974 32.438c-1.58-1.119-3.016-2.76-3.041-3.264 0-.918.082-1.357 2.141-2.961 2.662-2.084 4.128-4.824 4.128-7.719 0-2.625-.802-4.957-2.167-6.595h1.059c.219 0 .434-.068.609-.196l2.955-2.141c.367-.263.521-.732.381-1.161a1.042 1.042 0 0 0-.988-.72H18.835c-1.446 0-2.915.255-4.357.751-4.816 1.661-8.184 5.765-8.184 9.978 0 5.969 4.624 10.493 10.805 10.635a5.623 5.623 0 0 0-.182 1.396c0 .92.233 1.791.713 2.633h-.17c-5.892 0-11.21 2.891-13.229 7.193-.526 1.119-.794 2.25-.794 3.367a6.33 6.33 0 0 0 .826 3.113c1.269 2.27 3.994 4.031 7.677 4.961 1.901.48 3.944.725 6.065.725 1.906 0 3.723-.246 5.403-.732 5.238-1.521 8.625-5.377 8.625-9.828-.001-4.271-1.374-6.828-5.059-9.435zm-16.691 9.777c0-3.107 3.947-5.832 8.446-5.832h.121c.979.012 1.934.156 2.834.432.309.213.607.416.893.611 2.084 1.42 3.461 2.357 3.844 3.861.09.379.135.758.135 1.125 0 3.869-2.885 5.83-8.578 5.83-4.315 0-7.695-2.646-7.695-6.027zm4.094-29.357c.703-.803 1.624-1.227 2.658-1.227l.117.002c2.921.086 5.716 3.341 6.23 7.256.289 2.192-.199 4.253-1.301 5.509-.705.805-1.613 1.229-2.689 1.229h-.049c-2.861-.088-5.716-3.467-6.227-7.377-.287-2.186.173-4.151 1.261-5.392z"/></symbol><symbol viewBox="0 0 56.693 56.693" id="instagram" xmlns="http://www.w3.org/2000/svg"><path d="M43.414 4.831H13c-5.283 0-9.581 4.297-9.581 9.58v30.415c0 5.283 4.298 9.58 9.581 9.58h30.415c5.283 0 9.58-4.297 9.58-9.58V14.41c-.001-5.283-4.298-9.579-9.581-9.579zm2.748 5.713l1.096-.004v8.403l-8.375.027-.029-8.402 7.308-.024zM21.131 24.53c1.588-2.197 4.164-3.638 7.076-3.638s5.488 1.441 7.074 3.638a8.677 8.677 0 0 1 1.652 5.088c0 4.811-3.918 8.725-8.727 8.725-4.812 0-8.726-3.914-8.726-8.725a8.683 8.683 0 0 1 1.651-5.088zm27.033 20.295a4.754 4.754 0 0 1-4.75 4.75H13a4.755 4.755 0 0 1-4.751-4.75V24.53h7.4a13.483 13.483 0 0 0-.998 5.088c0 7.473 6.08 13.557 13.556 13.557 7.475 0 13.555-6.084 13.555-13.557 0-1.799-.361-3.516-1-5.088h7.402v20.295z"/></symbol><symbol viewBox="0 0 56.693 56.693" id="twitter" xmlns="http://www.w3.org/2000/svg"><path d="M52.837 15.065a20.11 20.11 0 0 1-5.805 1.591 10.125 10.125 0 0 0 4.444-5.592 20.232 20.232 0 0 1-6.418 2.454 10.093 10.093 0 0 0-7.377-3.192c-5.581 0-10.106 4.525-10.106 10.107 0 .791.089 1.562.262 2.303-8.4-.422-15.848-4.445-20.833-10.56a10.055 10.055 0 0 0-1.368 5.082c0 3.506 1.784 6.6 4.496 8.412a10.078 10.078 0 0 1-4.578-1.265l-.001.128c0 4.896 3.484 8.98 8.108 9.91a10.162 10.162 0 0 1-4.565.172c1.287 4.015 5.019 6.938 9.441 7.019a20.276 20.276 0 0 1-12.552 4.327c-.815 0-1.62-.048-2.411-.142a28.6 28.6 0 0 0 15.493 4.541c18.591 0 28.756-15.4 28.756-28.756 0-.438-.009-.875-.028-1.309a20.47 20.47 0 0 0 5.042-5.23z"/></symbol><symbol viewBox="0 0 56.693 56.693" id="youtube" xmlns="http://www.w3.org/2000/svg"><path d="M43.911 28.21H12.782c-4.948 0-8.959 4.015-8.959 8.962v7.201c0 4.947 4.011 8.961 8.959 8.961h31.129c4.947 0 8.959-4.014 8.959-8.961v-7.201c0-4.947-4.012-8.962-8.959-8.962zm-24.589 5.606h-2.894v14.38h-2.796v-14.38H10.74V31.37h8.582v2.446zm8.175 14.38h-2.48v-1.36c-.461.503-.936.887-1.432 1.146-.496.27-.975.396-1.441.396-.576 0-1.004-.183-1.297-.555-.288-.371-.435-.921-.435-1.664V35.782h2.48v9.523c0 .294.055.505.154.636.107.135.277.197.51.197.18 0 .412-.086.691-.26a3.35 3.35 0 0 0 .77-.668v-9.429h2.48v12.415zm9.004-2.563c0 .877-.195 1.551-.584 2.021-.387.47-.953.701-1.686.701-.488 0-.922-.088-1.299-.27a3.189 3.189 0 0 1-1.061-.841v.951h-2.51V31.37h2.51v5.419c.336-.375.691-.666 1.062-.861.379-.199.76-.295 1.146-.295.785 0 1.383.262 1.797.791.416.529.623 1.304.623 2.32v6.889zm8.603-3.345h-4.746v2.339c0 .652.08 1.106.242 1.359.166.254.445.378.842.378.412 0 .697-.107.863-.321.16-.216.246-.686.246-1.416v-.565h2.553v.637c0 1.272-.309 2.231-.936 2.878-.617.641-1.547.959-2.783.959-1.113 0-1.99-.339-2.627-1.021-.635-.678-.959-1.619-.959-2.815v-5.576c0-1.073.354-1.956 1.057-2.633.701-.677 1.604-1.015 2.715-1.015 1.137 0 2.01.313 2.619.941.609.629.914 1.529.914 2.706v3.165z"/><path d="M41.466 37.646c-.396 0-.678.111-.85.343-.176.218-.258.591-.258 1.112v1.255h2.193v-1.255c0-.521-.088-.895-.262-1.112-.167-.231-.446-.343-.823-.343zM32.909 37.604c-.176 0-.354.039-.525.12-.174.079-.344.21-.512.38v7.733c.199.2.396.354.588.442.191.085.389.133.6.133.305 0 .527-.088.67-.266.141-.176.213-.457.213-.854v-6.411c0-.422-.084-.738-.26-.955-.182-.214-.44-.322-.774-.322zM16.858 23.898h3.144v-7.69L23.663 5.36h-3.196l-1.946 7.41h-.198L16.28 5.36h-3.167l3.745 11.194zM27.923 24.243c1.27 0 2.266-.333 2.992-.999.721-.669 1.082-1.582 1.082-2.752v-7.064c0-1.041-.369-1.898-1.104-2.559-.74-.659-1.688-.991-2.844-.991-1.27 0-2.281.314-3.033.941-.75.627-1.127 1.468-1.127 2.531v7.088c0 1.163.367 2.083 1.1 2.773.733.687 1.713 1.032 2.934 1.032zm-1.158-10.997a.93.93 0 0 1 .316-.725c.217-.184.492-.273.834-.273.369 0 .668.089.896.273.227.188.34.428.34.725v7.451c0 .365-.111.655-.336.864-.223.21-.523.313-.9.313-.369 0-.654-.1-.854-.31-.197-.205-.297-.493-.297-.868v-7.45zM36.214 24.098c.525 0 1.064-.15 1.619-.438.561-.292 1.098-.719 1.609-1.276v1.515h2.793V10.224h-2.793v10.38c-.26.297-.549.541-.859.735-.316.192-.576.288-.781.288-.262 0-.455-.072-.568-.221-.115-.143-.18-.377-.18-.698V10.224h-2.789v11.429c0 .815.164 1.424.488 1.828.33.41.812.617 1.461.617z"/></symbol></svg>